<?xml version="1.0" encoding="utf-8"?>
<!-- Generator: Adobe Illustrator 21.0.0, SVG Export Plug-In . SVG Version: 6.00 Build 0)  -->
<svg version="1.1" id="Layer_1" xmlns="http://www.w3.org/2000/svg" xmlns:xlink="http://www.w3.org/1999/xlink" x="0px" y="0px"
	 viewBox="0 0 418.5 87" style="enable-background:new 0 0 418.5 87;" xml:space="preserve">
<style type="text/css">
	.st0{fill:#FFFFFF;}
	.st1{fill:#353535;}
	.st2{fill:#6D6E6E;}
	.st3{fill:#2D2D2D;}
</style>
<title>DSS_logo</title>
<g>
	<path class="st0" d="M133.6,5.4h16.2c11.4,0,19.1,6.6,19.1,17.1s-7.8,17.1-19.1,17.1h-16.2V5.4z M149.4,32c5.8,0,9.7-3.5,9.7-9.4
		s-3.9-9.4-9.7-9.4h-6.1V32H149.4z"/>
	<path class="st0" d="M198.4,25v14.7h-8.7v-3.4c-1.3,2.5-4,3.9-7.8,3.9c-6.4,0-9.9-3.6-9.9-8.2c0-4.9,3.6-7.9,11.8-7.9h5.3
		c-0.1-2.7-2-4.2-5.6-4.2c-2.5,0-5.4,0.9-7.2,2.3l-3.1-6.3c3-2,7.5-3.1,11.7-3.1C193.5,12.7,198.4,16.5,198.4,25z M189.1,31.2v-2.3
		h-4c-3,0-4.1,1.1-4.1,2.7c0,1.6,1.3,2.7,3.5,2.7C186.6,34.3,188.4,33.3,189.1,31.2z"/>
	<path class="st0" d="M222.1,12.7v8.4c-0.8-0.1-1.4-0.1-2.1-0.1c-3.8,0-6.4,1.9-6.4,6.6v12.2h-9.3V13.2h8.9v3.2
		C215.1,14,218.2,12.7,222.1,12.7z"/>
	<path class="st0" d="M237.9,30.4l-2.7,2.8v6.5h-9.3V3.4h9.3v19l9.5-9.2h11l-11,11.4l11.9,15.2h-11.3L237.9,30.4z"/>
	<path class="st0" d="M271.7,36.6l3.2-7.1c3,2,7.3,3.4,11.3,3.4c4,0,5.6-1.1,5.6-2.8c0-5.4-19.5-1.5-19.5-14.2
		c0-6.1,5-11.1,15.2-11.1c4.5,0,9.1,1,12.4,3l-3,7.2c-3.3-1.8-6.5-2.6-9.5-2.6c-4.1,0-5.5,1.4-5.5,3.1c0,5.2,19.4,1.3,19.4,13.9
		c0,6-5,11.1-15.2,11.1C280.6,40.4,275,38.9,271.7,36.6z"/>
	<path class="st0" d="M322.4,38.6c-1.6,1-4,1.5-6.5,1.5c-6.8,0-10.7-3.3-10.7-10.1V7.2h9.3v6.9h6v6.9h-6v8.8c0,2,1.1,3,2.7,3
		c1,0,2.1-0.3,2.8-0.8L322.4,38.6z"/>
	<path class="st0" d="M323.6,26.4c0-8,6.3-13.7,15-13.7c8.8,0,15,5.7,15,13.7c0,8-6.2,13.7-15,13.7
		C329.9,40.1,323.6,34.4,323.6,26.4z M344.1,26.4c0-4-2.4-6.3-5.6-6.3c-3.1,0-5.6,2.3-5.6,6.3c0,4.1,2.4,6.4,5.6,6.4
		C341.7,32.7,344.1,30.4,344.1,26.4z"/>
	<path class="st0" d="M386.1,24.5v15.2h-9.3V26c0-3.8-1.7-5.4-4.4-5.4c-3,0-5.3,1.9-5.3,6.3v12.8h-9.3V13.2h8.9v2.9
		c2.1-2.2,5.1-3.3,8.4-3.3C381.3,12.7,386.1,16.3,386.1,24.5z"/>
	<path class="st0" d="M412.6,30.7l4.8,5.1c-2.5,2.8-6.2,4.3-11.3,4.3c-9.4,0-15.6-5.8-15.6-13.7c0-8,6.3-13.7,14.7-13.7
		c7.6,0,14,4.8,14.1,13.5l-18.9,3.6c1,2.2,3.1,3.2,6,3.2C409.1,33,410.8,32.3,412.6,30.7z M399.7,25.1l10.8-2.1
		c-0.6-2.2-2.5-3.7-5.1-3.7C402.2,19.3,400,21.3,399.7,25.1z"/>
	<path class="st0" d="M132.5,78.2l1.4-2.8c2.4,2.4,6.8,4.2,11.3,4.2c6.4,0,9.2-2.7,9.2-6.1c0-9.4-21.1-3.6-21.1-16.3
		c0-5,3.9-9.4,12.6-9.4c3.9,0,7.9,1.1,10.6,3l-1.2,2.9c-2.9-1.9-6.4-2.8-9.4-2.8c-6.3,0-9.1,2.8-9.1,6.2c0,9.4,21.1,3.7,21.1,16.2
		c0,5-4,9.3-12.8,9.3C140,82.6,135,80.8,132.5,78.2z"/>
	<path class="st0" d="M177.8,80.8c-1.3,1.2-3.4,1.8-5.4,1.8c-4.8,0-7.5-2.7-7.5-7.5V51h3.5v5.6h7.8v2.9h-7.8v15.4
		c0,3,1.5,4.7,4.4,4.7c1.5,0,2.8-0.4,3.8-1.3L177.8,80.8z"/>
	<path class="st0" d="M207.3,56.6v25.7H204v-4.7c-1.8,3.1-5.1,4.9-9.2,4.9c-6.6,0-10.9-3.7-10.9-11.1V56.6h3.5v14.6
		c0,5.5,2.8,8.3,7.7,8.3c5.4,0,8.8-3.5,8.8-9.3V56.6H207.3z"/>
	<path class="st0" d="M240.5,46v36.3h-3.3v-5.1c-2.1,3.5-5.7,5.3-9.9,5.3c-7.3,0-12.8-5.3-12.8-13.1c0-7.8,5.5-13.1,12.8-13.1
		c4.1,0,7.6,1.8,9.8,5.1V46H240.5z M237.1,69.5c0-6-4.1-10-9.5-10c-5.5,0-9.6,4-9.6,10c0,6,4.1,10,9.6,10
		C233,79.5,237.1,75.5,237.1,69.5z"/>
	<path class="st0" d="M249.4,48.5c0-1.3,1.1-2.4,2.5-2.4c1.4,0,2.5,1.1,2.5,2.4c0,1.4-1.1,2.5-2.5,2.5
		C250.6,51,249.4,49.8,249.4,48.5z M250.2,56.6h3.5v25.7h-3.5V56.6z"/>
	<path class="st0" d="M260.8,69.5c0-7.6,5.6-13.1,13.1-13.1c7.5,0,13.1,5.4,13.1,13.1s-5.5,13.1-13.1,13.1
		C266.4,82.6,260.8,77.1,260.8,69.5z M283.4,69.5c0-6-4.1-10-9.5-10c-5.5,0-9.6,4-9.6,10c0,6,4.1,10,9.6,10
		C279.4,79.5,283.4,75.5,283.4,69.5z"/>
</g>
<g>
	<path class="st1" d="M35.7,54.5c-2.5,0.5-21.9-6.6-29.3-5c0.5-3.9,4-6.1,8.2-9.7c4.4-3.7,29.2-20.2,41.8-27.7
		c8.2-4.7,13.5-7.7,17.3-6.6c-3.6,0.7,5.3,15.6,0,21c-6.7,6.7-7.9,7-13.3,13.9c-5.2,6.7-10.2,11.8-9.7,16.2
		C50.3,55.4,37.3,54.1,35.7,54.5z"/>
	<path class="st2" d="M51.9,69.3c-3.2,0.5-5.4-1.6-6.7-8.4c-1.3-6.8-1.9-11.3-2.5-16c-0.6-4.7-0.3-7.4,5.2-14.3
		c5.4-6.9,6.8-7.4,13.6-14.2c5.3-5.3,8.6-10.3,12.2-11c0.6,0.2,1.2,0.5,1.8,0.9c3.6,2.6,6.8,9.4,6.8,9.4s8.5,14.4,15.9,29
		c2.2,5.1,2.9,7.8,2.6,9.7c-3.5,1.5-11.6,4.9-22.3,8C64,66.5,57,68.2,51.9,69.3z"/>
	<path class="st1" d="M51.9,69.3c5.2-1.1,12.1-2.7,26.5-6.9c10.7-3.1,18.8-6.4,22.3-8c-0.4,2.4-2.3,3.8-4.9,7.3
		C88,69.6,82.2,75.2,78.1,77.9c-3.6,2.7-10.3,4.5-25.9,4.1c-2.6-0.1-5.2-0.4-7.8-0.8l4.3-12.7C49.6,69.3,50.7,69.5,51.9,69.3z"/>
	<path class="st3" d="M6.3,49.5c7.4-1.6,30.9-6.8,33.5-7.3c1.6-0.3,2.4,0.9,2.8,2.2c0,0.2,0,0.3,0.1,0.5c0.6,4.7,1.2,9.2,2.5,16
		c0.8,4.2,1.9,6.6,3.5,7.7l-4.3,12.7c-9.5-1.3-19.1-3.7-26.7-5.2c-8.5-1.9-9.4-4.2-10.5-10.8C6,58.6,6,54.2,6.3,50
		C6.3,49.8,6.3,49.7,6.3,49.5z"/>
</g>
</svg>
