<?xml version="1.0" encoding="utf-8"?>
<!-- Generator: Adobe Illustrator 21.0.0, SVG Export Plug-In . SVG Version: 6.00 Build 0)  -->
<svg version="1.1" id="Layer_1" xmlns="http://www.w3.org/2000/svg" xmlns:xlink="http://www.w3.org/1999/xlink" x="0px" y="0px"
	 viewBox="0 0 418.5 87" style="enable-background:new 0 0 418.5 87;" xml:space="preserve">
<style type="text/css">
	.st0{fill:#0F0F0F;}
	.st1{fill:#3A3A3A;}
	.st2{fill:#141414;}
</style>
<title>DSS_logo</title>
<g>
	<g>
		<path class="st0" d="M136.3,6.7h16.2c11.3,0,19.1,6.6,19.1,17.1s-7.8,17.1-19.1,17.1h-16.2V6.7z M152,33.2c5.8,0,9.7-3.5,9.7-9.4
			s-3.9-9.4-9.7-9.4h-6.1v18.7H152z"/>
		<path class="st0" d="M200.9,26.2v14.7h-8.6v-3.4c-1.3,2.5-4,3.9-7.8,3.9c-6.3,0-9.9-3.6-9.9-8.2c0-4.9,3.6-7.9,11.8-7.9h5.3
			c-0.1-2.7-2-4.2-5.6-4.2c-2.5,0-5.4,0.9-7.2,2.3l-3.1-6.3c3-2,7.5-3.1,11.7-3.1C196,14,200.9,17.8,200.9,26.2z M191.7,32.4v-2.3
			h-4c-3,0-4.1,1.1-4.1,2.7c0,1.6,1.3,2.7,3.5,2.7C189.1,35.4,190.9,34.5,191.7,32.4z"/>
		<path class="st0" d="M224.5,14v8.3c-0.8-0.1-1.4-0.1-2.1-0.1c-3.8,0-6.3,1.9-6.3,6.5v12.2h-9.3V14.4h8.8v3.2
			C217.6,15.2,220.6,14,224.5,14z"/>
		<path class="st0" d="M240.4,31.6l-2.7,2.8v6.5h-9.3V4.6h9.3v19l9.5-9.2h11l-11,11.3L259,40.9h-11.2L240.4,31.6z"/>
		<path class="st0" d="M274.1,37.8l3.2-7.1c3,2,7.3,3.4,11.3,3.4c4,0,5.6-1.1,5.6-2.8c0-5.4-19.4-1.5-19.4-14.2
			c0-6.1,5-11.1,15.1-11.1c4.4,0,9,1,12.4,3l-3,7.2c-3.3-1.8-6.5-2.6-9.5-2.6c-4.1,0-5.5,1.4-5.5,3.1c0,5.2,19.4,1.3,19.4,13.9
			c0,6-5,11-15.1,11C282.9,41.6,277.3,40,274.1,37.8z"/>
		<path class="st0" d="M324.7,39.8c-1.6,1-4,1.5-6.4,1.5c-6.8,0-10.7-3.3-10.7-10.1V8.5h9.3v6.9h6v6.9h-6v8.8c0,2,1.1,3,2.7,3
			c1,0,2.1-0.3,2.8-0.8L324.7,39.8z"/>
		<path class="st0" d="M325.8,27.6c0-8,6.3-13.6,14.9-13.6c8.7,0,14.9,5.7,14.9,13.6c0,8-6.2,13.7-14.9,13.7
			C332.1,41.3,325.8,35.6,325.8,27.6z M346.3,27.6c0-4-2.4-6.2-5.6-6.2c-3.1,0-5.6,2.2-5.6,6.2c0,4.1,2.4,6.3,5.6,6.3
			C343.9,33.9,346.3,31.6,346.3,27.6z"/>
		<path class="st0" d="M388.2,25.7v15.1h-9.3V27.2c0-3.8-1.7-5.4-4.3-5.4c-3,0-5.3,1.9-5.3,6.2v12.8H360V14.4h8.8v2.9
			c2.1-2.2,5.1-3.3,8.4-3.3C383.4,14,388.2,17.5,388.2,25.7z"/>
		<path class="st0" d="M414.6,31.9l4.8,5.1c-2.5,2.8-6.2,4.3-11.2,4.3c-9.4,0-15.5-5.8-15.5-13.7c0-8,6.2-13.6,14.6-13.6
			c7.6,0,14,4.8,14.1,13.5l-18.9,3.6c1,2.1,3.1,3.2,6,3.2C411.1,34.2,412.8,33.5,414.6,31.9z M401.8,26.3l10.7-2.1
			c-0.6-2.2-2.5-3.7-5.1-3.7C404.2,20.6,402.1,22.6,401.8,26.3z"/>
		<path class="st1" d="M135.1,79.3l1.4-2.8c2.4,2.4,6.8,4.1,11.3,4.1c6.4,0,9.2-2.7,9.2-6.1c0-9.4-21-3.6-21-16.3
			c0-5,3.9-9.4,12.6-9.4c3.9,0,7.9,1.1,10.6,3l-1.2,2.9c-2.9-1.9-6.3-2.8-9.4-2.8c-6.2,0-9,2.8-9,6.2c0,9.4,21,3.7,21,16.2
			c0,5-4,9.3-12.7,9.3C142.7,83.7,137.7,81.9,135.1,79.3z"/>
		<path class="st1" d="M180.3,81.9c-1.3,1.2-3.4,1.8-5.4,1.8c-4.8,0-7.5-2.7-7.5-7.5V52.1h3.5v5.6h7.8v2.9h-7.8V76
			c0,3,1.5,4.7,4.4,4.7c1.5,0,2.8-0.4,3.8-1.3L180.3,81.9z"/>
		<path class="st1" d="M209.8,57.7v25.7h-3.3v-4.7c-1.8,3.1-5.1,4.9-9.2,4.9c-6.5,0-10.8-3.7-10.8-11V57.7h3.5v14.5
			c0,5.5,2.8,8.3,7.7,8.3c5.4,0,8.7-3.5,8.7-9.3V57.7H209.8z"/>
		<path class="st1" d="M242.9,47.2v36.2h-3.3v-5.1c-2.1,3.5-5.7,5.3-9.9,5.3c-7.3,0-12.8-5.3-12.8-13.1c0-7.8,5.5-13,12.8-13
			c4.1,0,7.6,1.8,9.8,5.1V47.2H242.9z M239.5,70.6c0-6-4.1-10-9.5-10c-5.5,0-9.6,4-9.6,10c0,6,4.1,10,9.6,10
			C235.4,80.6,239.5,76.6,239.5,70.6z"/>
		<path class="st1" d="M251.8,49.6c0-1.3,1.1-2.4,2.5-2.4c1.4,0,2.5,1.1,2.5,2.4c0,1.4-1.1,2.5-2.5,2.5
			C253,52.1,251.8,51,251.8,49.6z M252.6,57.7h3.5v25.7h-3.5V57.7z"/>
		<path class="st1" d="M263.2,70.6c0-7.6,5.6-13,13.1-13s13,5.4,13,13s-5.5,13.1-13,13.1S263.2,78.2,263.2,70.6z M285.8,70.6
			c0-6-4.1-10-9.5-10s-9.6,4-9.6,10c0,6,4.1,10,9.6,10S285.8,76.6,285.8,70.6z"/>
	</g>
	<g>
		<path class="st2" d="M36.2,59.8C33.7,60.3,13.9,48.4,6.5,50c0.5-3.9,4-6.1,8.2-9.7c4.4-3.7,29.1-20.2,41.7-27.6
			C64.5,7.9,69.8,5,73.6,6.1c-3.6,0.7,8.9,16.3,3.6,21.6c-6.7,6.7-14.1,6.8-19.5,13.7c-5.2,6.7-9.6,12.1-9,16.4
			C48.3,56.5,37.8,59.5,36.2,59.8z"/>
		<path class="st1" d="M51.9,69.7c-3.2,0.5-5.4-1.6-6.7-8.4c-1.3-6.8-1.9-11.3-2.5-16c-0.6-4.7-0.3-7.4,5.1-14.3
			c5.4-6.9,6.8-7.4,13.5-14.1c5.3-5.3,8.6-10.2,12.2-11c0.6,0.2,1.2,0.5,1.8,0.9c3.6,2.6,6.8,9.3,6.8,9.3s8.5,14.4,15.9,29
			c2.2,5.1,2.9,7.8,2.6,9.7c-3.5,1.5-11.6,4.9-22.3,8C64,67,57.1,68.6,51.9,69.7z"/>
		<path class="st2" d="M51.9,69.7c5.2-1.1,12.1-2.7,26.4-6.8c10.6-3,18.8-6.4,22.3-8c-0.4,2.4-2.3,3.8-4.9,7.3
			C88,70.1,82.2,75.6,78.1,78.4c-3.6,2.7-10.3,4.5-25.9,4.1c-2.6-0.1-5.2-0.4-7.8-0.8l4.3-12.6C49.6,69.7,50.7,69.9,51.9,69.7z"/>
		<path class="st0" d="M6.5,50c7.4-1.6,30.9-6.7,33.4-7.2c1.6-0.3,2.4,0.9,2.8,2.1c0,0.2,0,0.3,0.1,0.5c0.6,4.7,1.2,9.2,2.5,16
			c0.8,4.2,1.9,6.6,3.5,7.7l-4.3,12.6c-9.5-1.3-19.1-3.7-26.7-5.2c-8.5-1.9-9.3-4.2-10.4-10.8c-1.1-6.6-1.1-10.9-0.9-15.2
			C6.4,50.3,6.5,50.2,6.5,50z"/>
	</g>
</g>
</svg>
